<?xml version="1.0" encoding="utf-8"?>
<!-- Generator: Adobe Illustrator 15.0.0, SVG Export Plug-In . SVG Version: 6.00 Build 0)  -->
<!DOCTYPE svg PUBLIC "-//W3C//DTD SVG 1.1//EN" "http://www.w3.org/Graphics/SVG/1.1/DTD/svg11.dtd">
<svg version="1.1" id="图层_1" xmlns="http://www.w3.org/2000/svg" xmlns:xlink="http://www.w3.org/1999/xlink" x="0px" y="0px"
	 width="286.586px" height="286px" viewBox="0 0 286.586 286" enable-background="new 0 0 286.586 286" xml:space="preserve">
<g>
	<path fill-rule="evenodd" clip-rule="evenodd" d="M211.662,204.992c22.391,22.659,45.051,45.761,68.082,68.81
		c2.916,2.917,8.99,5.954,6.066,11.468c-5.22,3.909-8.82-2.757-11.458-5.397c-21.862-21.879-46.488-45.542-68.082-68.134
		c-24.737,20.362-52.381,36.377-95.046,33.055C49.352,239.975,0.235,187.823,0.001,122.016
		c-0.127-35.662,14.828-62.665,34.378-82.977C54.732,17.894,80.744,3.517,115.943,1.262c56.211-3.601,96.415,30.504,114.594,67.46
		C252.703,113.786,243.901,176.657,211.662,204.992z M41.794,43.761c-16.831,16.844-30.788,38.16-33.029,69.484
		c-4.069,56.844,28.817,95.171,62.688,111.984c94.987,47.149,199.216-52.578,152.343-151.111
		c-16.882-35.49-55.531-67.989-111.223-63.413C79.903,13.39,58.614,26.927,41.794,43.761z"/>
	<path fill-rule="evenodd" clip-rule="evenodd" d="M113.275,30.944c3.933-0.42,14.419-2.673,14.831,3.373
		c0.479,7.046-7.735,4.111-14.831,4.722c-21.576,1.858-38.449,15.167-49.882,29.008c-7.737,9.367-16.282,24.415-18.875,40.476
		c-0.766,4.747,0.578,14.481-4.718,14.842c-10.225,0.695-0.393-28.371,1.347-33.055c4.124-11.096,9.707-19.211,16.178-26.985
		C70.033,48.066,86.721,33.785,113.275,30.944z"/>
</g>
</svg>
