<?xml version="1.0" encoding="utf-8"?>
<!-- Generator: Adobe Illustrator 15.0.0, SVG Export Plug-In . SVG Version: 6.00 Build 0)  -->
<!DOCTYPE svg PUBLIC "-//W3C//DTD SVG 1.1//EN" "http://www.w3.org/Graphics/SVG/1.1/DTD/svg11.dtd">
<svg version="1.1" id="图层_1" xmlns="http://www.w3.org/2000/svg" xmlns:xlink="http://www.w3.org/1999/xlink" x="0px" y="0px"
	 width="304.034px" height="286px" viewBox="0 0 304.034 286" enable-background="new 0 0 304.034 286" xml:space="preserve">
<g>
	<path fill-rule="evenodd" clip-rule="evenodd" d="M55.497,47.243c13.01,0,26.021,0,39.03,0c3.548-10.27-5.908-38.168,2.838-44.708
		c6.07-4.538,33.792-1.419,43.289-1.419c16.673,0,31.301-1.093,42.579,1.419c3.433,2.718,1.737,10.564,2.129,16.322
		c24.638,0.909,52.936-1.841,75.222,1.42c4.206,5.256,1.245,17.679,2.13,26.257c12.302,1.654,27.675,0.237,41.159,0.709
		c1.378,28.089-6.344,44.708-12.774,65.997c-2.262,7.492-5.079,14.551-7.096,21.29c-3.172,10.604-5.666,22.956-12.773,30.515
		c-17.304,18.401-53.596,14.193-87.287,14.193c-15.784,0-33.319,0-50.385,0c-16.325,0-36.124-3.134-50.385,0
		c-11.961,2.628-14.591,17.557-16.322,31.934c56.329,1.299,113.271,0.709,171.735,0.709c9.575,0,17.489-0.636,17.032,7.096
		c-0.618,10.463-34.87,6.387-46.127,6.387c-39.238,0-64.881,0-105.028,0c-12.396,0-44.111,3.435-49.675-2.129
		c-8.999-8.999,4.415-41.159,9.935-47.547c3.647-4.22,8.061-6.335,14.193-9.225c-10.718-34.72-25.169-78.181-36.901-116.382
		c-3.898-12.692-6.58-31.355-16.323-34.773c-6.911-2.424-21.745,1.628-24.837-3.548C0.339,10.899-2.04,3.487,4.402,1.116
		c9.462-3.483,28.542,1.966,33.353,5.677C48.787,15.303,50.392,34.165,55.497,47.243z M109.429,14.599
		c-2.788,7.893-1.444,23.581-0.709,32.644c21.052,0,42.105,0,63.159,0c0-10.881,0-21.762,0-32.644
		C151.063,14.599,130.246,14.599,109.429,14.599z M186.781,32.34c-2.651,2.221-1.509,11.547-0.709,14.903
		c21.052,0,42.105,0,63.159,0c0-4.967,0-9.935,0-14.903C228.414,32.34,207.598,32.34,186.781,32.34z M60.464,62.855
		c10.784,33.924,21.238,68.177,31.934,102.189c36.247,0,77.971,0,114.963,0c12.83,0,27.607,1.916,38.321-0.71
		c18.008-4.414,21.197-19.067,26.256-35.482c7.152-23.202,14.079-45.205,20.58-68.126c-77.115,0-154.229,0-231.344,0
		C60.347,60.846,60.403,61.848,60.464,62.855z"/>
	<path fill-rule="evenodd" clip-rule="evenodd" d="M62.593,237.429c28.844-4.498,38.541,38.825,12.064,47.546
		c-17.744,5.845-34.262-8.753-32.644-26.257C43.071,247.271,50.126,239.373,62.593,237.429z M69.69,272.201
		c11.157-2.645,9.552-24.642-5.678-21.29C49.479,254.111,55.715,275.514,69.69,272.201z"/>
	<path fill-rule="evenodd" clip-rule="evenodd" d="M237.875,237.429c13.502-2.213,24.561,5.46,27.676,16.322
		c5.661,19.734-11.846,37.841-31.934,31.224c-10.252-3.377-18.034-15.48-15.612-29.095
		C219.669,246.527,226.951,239.219,237.875,237.429z M245.682,272.201c11.576-2.848,8.417-24.807-6.387-21.29
		C225.118,254.28,232.083,275.547,245.682,272.201z"/>
</g>
</svg>
